<?xml version="1.0"?>
<svg xmlns:rdf="http://www.w3.org/1999/02/22-rdf-syntax-ns#" xmlns="http://www.w3.org/2000/svg" xmlns:cc="http://web.resource.org/cc/" xmlns:xlink="http://www.w3.org/1999/xlink" xmlns:dc="http://purl.org/dc/elements/1.1/" xmlns:svg="http://www.w3.org/2000/svg" id="svg2" viewBox="0 0 140 190" version="1.0" y="0" x="0">
  <defs id="defs3">
    <linearGradient id="linearGradient8305">
      <stop id="stop8314" stop-color="#000086" offset="0"/>
      <stop id="stop8316" stop-color="#005aff" offset="1"/>
    </linearGradient>
    <linearGradient id="linearGradient4853" y2="128.7" gradientUnits="userSpaceOnUse" x2="109" gradientTransform="translate(0 -1)" y1="63.1" x1="2">
      <stop id="stop2062" stop-color="#ebf0d0" offset="0"/>
      <stop id="stop2064" stop-color="#ffffeb" offset="1"/>
    </linearGradient>
    <linearGradient id="linearGradient8318" y2="18.728" xlink:href="#linearGradient8305" gradientUnits="userSpaceOnUse" x2="36.52" gradientTransform="scale(.85424 1.1706)" y1="146.62" x1="138.23"/>
    <linearGradient id="linearGradient9086" y2="140.45" xlink:href="#linearGradient8305" gradientUnits="userSpaceOnUse" x2="146.4" gradientTransform="scale(.85537 1.1691)" y1="17.153" x1="22.029"/>
    <linearGradient id="linearGradient2085" y2="279" xlink:href="#linearGradient8305" gradientUnits="userSpaceOnUse" x2="-6.541" gradientTransform="scale(2.9516 .33880)" y1="405.74" x1="-8.6704"/>
    <linearGradient id="linearGradient2093" y2="369.85" xlink:href="#linearGradient8305" gradientUnits="userSpaceOnUse" x2="-19.597" gradientTransform="scale(3.0181 .33133)" y1="236.49" x1="-14.811"/>
    <linearGradient id="linearGradient5592" y2="143.28" xlink:href="#linearGradient8305" gradientUnits="userSpaceOnUse" x2="96.605" gradientTransform="scale(1.1318 .88352)" y1="69.896" x1="31.777"/>
    <linearGradient id="linearGradient5604" y2="62.768" xlink:href="#linearGradient8305" gradientUnits="userSpaceOnUse" x2="21.316" gradientTransform="scale(1.1301 .88485)" y1="145.2" x1="96.483"/>
  </defs>
  <g id="g5630">
    <path id="rect2070" d="m21 5h103c8.86 0 16 7.136 16 16v153c0 8.86-7.14 16-16 16h-103c-8.864 0-16-7.14-16-16v-153c0-8.864 7.136-16 16-16z" fill-opacity=".49804"/>
    <path id="rect1300" d="m17 1h103c8.86 0 16 7.136 16 16v153c0 8.86-7.14 16-16 16h-103c-8.864 0-16-7.14-16-16v-153c0-8.864 7.136-16 16-16z" fill="#fff"/>
    <path id="path5624" d="m19 3h103c8.86 0 16 7.136 16 16v153c0 8.86-7.14 16-16 16h-103c-8.864 0-16-7.14-16-16v-153c0-8.864 7.136-16 16-16z" fill="#c7891f"/>
    <path id="rect1306" d="m18 2h103c8.86 0 16 7.136 16 16v153c0 8.86-7.14 16-16 16h-103c-8.864 0-16-7.14-16-16v-153c0-8.864 7.136-16 16-16z" fill="url(#linearGradient4853)"/>
  </g>
  <path id="path1385" d="m22.167 10h94.413c8.13 0 14.67 6.541 14.67 14.667v140.25c0 8.12-6.54 14.66-14.67 14.66h-94.413c-8.126 0-14.667-6.54-14.667-14.66v-140.25c0-8.129 6.541-14.67 14.667-14.67z" fill="url(#linearGradient8318)"/>
  <path id="path2154" d="m22.156 9.375c-8.461 0-15.281 6.82-15.281 15.281v140.25c0 8.46 6.82 15.31 15.281 15.31h94.434c8.46 0 15.29-6.85 15.29-15.31v-140.25c0-8.465-6.83-15.285-15.29-15.285h-94.434zm0 1.25h94.434c7.79 0 14.03 6.241 14.03 14.031v140.25c0 7.79-6.24 14.06-14.03 14.06h-94.434c-7.79 0-14.031-6.27-14.031-14.06v-140.25c0-7.794 6.241-14.035 14.031-14.035z" fill="url(#linearGradient9086)"/>
  <path id="path6344" d="m78.815 48.952l-12.782 1.469-7.312-0.844c-2.174-0.257-4.138 0.626-5.531 2.094l-1.344 0.406-15.594 1.813c-2.622 0.304-4.653 2.111-5.469 4.437l-15 4.469c-3.535 1.051-5.519 4.746-4.468 8.281l18.125 61.033c0.552 1.86 1.861 3.24 3.468 4.03 0.182 0.11 0.371 0.19 0.563 0.28 0.251 0.15 0.512 0.26 0.781 0.38 1.585 1.05 3.556 1.49 5.531 0.9l26.907-8 5.25 0.63 20.656 9.22c3.368 1.5 7.279-0.01 8.784-3.38l25.93-58.155c0.85-1.893 0.67-3.911-0.18-5.625-0.08-0.257-0.12-0.505-0.22-0.75-0.07-0.228-0.16-0.439-0.25-0.657-0.58-1.691-1.8-3.149-3.56-3.937l-15.22-6.813c-0.3-0.621-0.66-1.187-1.13-1.687-0.17-0.262-0.32-0.515-0.53-0.75-0.12-0.161-0.24-0.288-0.37-0.438-1.06-1.466-2.63-2.552-4.57-2.781l-8.34-1-8.969-4c-1.074-0.479-2.191-0.564-3.281-0.469-0.61-0.103-1.229-0.231-1.875-0.156z" fill="url(#linearGradient5592)"/>
  <path id="path5594" d="m78.75 48.344l-12.656 1.468h-0.125l-7.188-0.843c-2.269-0.268-4.285 0.637-5.781 2.093l-1.344 0.407-15.468 1.812c-2.732 0.317-4.878 2.135-5.844 4.5l-14.75 4.407c-3.858 1.146-6.0209 5.207-4.875 9.062l18.125 61.03c0.601 2.02 2.022 3.52 3.75 4.38v0.03c0.007 0 0.024-0.01 0.031 0 0.21 0.12 0.37 0.2 0.531 0.28h0.032c0.256 0.15 0.489 0.24 0.718 0.34 0.032 0.02 0.063 0.05 0.094 0.07v-0.04c1.704 1.11 3.838 1.61 5.969 0.97l26.843-7.97 4.876 0.57h0.031l20.625 9.21c3.675 1.64 7.956-0.01 9.596-3.68l25.94-58.159c0.91-2.041 0.72-4.222-0.16-6.062-0.01-0.025-0.03-0.067-0.03-0.094-0.05-0.194-0.11-0.411-0.22-0.687v-0.032c-0.07-0.212-0.13-0.422-0.22-0.625-0.01-0.022-0.02-0.04-0.03-0.062-0.64-1.815-1.97-3.399-3.88-4.25l-15.06-6.75c-0.28-0.534-0.58-1.041-1-1.5-0.02-0.028-0.04-0.066-0.06-0.094-0.14-0.214-0.3-0.453-0.5-0.687-0.02-0.023-0.02-0.042-0.03-0.063-0.12-0.156-0.25-0.272-0.35-0.375-0.01-0.014-0.02-0.049-0.03-0.062h-0.03c-1.14-1.552-2.84-2.721-4.94-2.969l-8.152-0.969h-0.032l-8.937-4c-1.144-0.51-2.324-0.58-3.438-0.5-0.045-0.008-0.11 0.008-0.156 0-0.561-0.098-1.161-0.239-1.875-0.156zm0.125 1.218c0.52-0.06 1.094 0.051 1.719 0.157l0.062 0.031 0.094-0.031c1.021-0.089 2.017 0.013 2.969 0.437l8.969 4 0.093 0.032h0.094l8.345 1c1.75 0.206 3.16 1.186 4.12 2.531v0.031l0.04 0.031c0.14 0.172 0.26 0.266 0.34 0.375v0.032l0.03 0.031c0.16 0.186 0.29 0.386 0.47 0.656l0.03 0.063 0.03 0.031c0.42 0.443 0.76 0.953 1.03 1.531l0.1 0.219 0.21 0.093 15.22 6.813c1.61 0.715 2.7 2.022 3.22 3.563v0.031l0.03 0.031c0.09 0.2 0.16 0.388 0.22 0.594l0.03 0.031c0.07 0.161 0.11 0.388 0.19 0.687v0.063l0.03 0.031c0.78 1.571 0.95 3.383 0.19 5.094l-25.94 58.16c-1.364 3.06-4.904 4.42-7.966 3.06l-20.656-9.22-0.094-0.03h-0.094l-5.25-0.63-0.125-0.03-0.125 0.03-26.906 8c-1.785 0.53-3.547 0.16-5-0.81l-0.032-0.03-0.062-0.03c-0.275-0.12-0.518-0.22-0.719-0.34l-0.031-0.04c-0.21-0.1-0.399-0.17-0.531-0.25h-0.031c-1.469-0.72-2.657-1.97-3.157-3.65l-18.125-61.034c-0.955-3.215 0.85-6.545 4.063-7.5l15-4.468 0.312-0.094 0.094-0.313c0.742-2.116 2.56-3.755 4.937-4.031l15.594-1.812h0.125l1.344-0.407 0.156-0.062 0.125-0.125c1.278-1.346 3.036-2.138 5-1.906l7.313 0.843 0.062 0.031 0.063-0.031 12.781-1.469z" fill="url(#linearGradient5604)"/>
  <path id="text1314" transform="matrix(.59128 -.80646 .80646 .59128 0 0)" fill="url(#linearGradient2093)" d="m-116.86 105.28c-1.14 0-2.02 0.42-2.65 1.26-0.63 0.85-0.94 2.03-0.94 3.56 0 1.52 0.31 2.71 0.94 3.55s1.51 1.26 2.65 1.26c1.15 0 2.04-0.42 2.67-1.26s0.94-2.03 0.94-3.55c0-1.53-0.31-2.71-0.94-3.56-0.63-0.84-1.52-1.26-2.67-1.26m0-2.71c2.34 0 4.16 0.67 5.48 2 1.33 1.34 1.99 3.18 1.99 5.53s-0.66 4.19-1.99 5.52c-1.32 1.34-3.14 2-5.48 2-2.32 0-4.15-0.66-5.48-2-1.32-1.33-1.98-3.17-1.98-5.52s0.66-4.19 1.98-5.53c1.33-1.33 3.16-2 5.48-2m13.61 13.2v5.71h-3.48v-15.02h3.48v1.59c0.48-0.63 1.01-1.1 1.59-1.4 0.59-0.3 1.26-0.46 2.015-0.46 1.341 0 2.443 0.54 3.304 1.61 0.862 1.06 1.293 2.43 1.293 4.11s-0.431 3.05-1.293 4.12c-0.861 1.06-1.963 1.59-3.304 1.59-0.755 0-1.425-0.15-2.015-0.44-0.58-0.31-1.11-0.78-1.59-1.41m2.31-7.05c-0.74 0-1.32 0.28-1.72 0.83-0.39 0.54-0.59 1.33-0.59 2.36s0.2 1.82 0.59 2.37c0.4 0.54 0.98 0.82 1.72 0.82 0.75 0 1.314-0.28 1.703-0.82 0.395-0.54 0.593-1.33 0.593-2.37s-0.198-1.83-0.593-2.37c-0.389-0.55-0.953-0.82-1.703-0.82m19.342 3.15v0.99h-8.134c0.084 0.82 0.379 1.43 0.884 1.84s1.212 0.61 2.119 0.61c0.732 0 1.48-0.11 2.245-0.32 0.771-0.22 1.561-0.55 2.371-0.99v2.68c-0.823 0.31-1.646 0.55-2.468 0.7-0.823 0.16-1.646 0.24-2.469 0.24-1.97 0-3.502-0.5-4.597-1.49-1.088-1.01-1.632-2.41-1.632-4.22 0-1.78 0.534-3.17 1.603-4.19 1.076-1.02 2.553-1.53 4.432-1.53 1.71 0 3.077 0.52 4.101 1.55 1.03 1.03 1.545 2.41 1.545 4.13m-3.576-1.16c0-0.66-0.195-1.19-0.583-1.59-0.383-0.41-0.885-0.61-1.507-0.61-0.674 0-1.221 0.19-1.642 0.57s-0.684 0.92-0.787 1.63h4.519m17.182 0v6.63h-3.499v-5.07c0-0.94-0.023-1.59-0.068-1.94-0.039-0.36-0.11-0.62-0.214-0.79-0.136-0.23-0.32-0.4-0.554-0.53-0.233-0.13-0.498-0.19-0.797-0.19-0.725 0-1.295 0.28-1.71 0.84s-0.622 1.34-0.622 2.33v5.35h-3.479v-10.88h3.479v1.59c0.525-0.63 1.082-1.1 1.672-1.4 0.589-0.3 1.24-0.46 1.953-0.46 1.257 0 2.209 0.39 2.857 1.16 0.655 0.77 0.982 1.89 0.982 3.36m14.908 5.83c-0.687 0.36-1.403 0.63-2.148 0.81s-1.523 0.27-2.332 0.27c-2.417 0-4.332-0.67-5.744-2.02s-2.119-3.19-2.119-5.5c0-2.32 0.707-4.15 2.119-5.5s3.327-2.03 5.744-2.03c0.809 0 1.587 0.09 2.332 0.27s1.461 0.45 2.148 0.81v3c-0.693-0.47-1.377-0.82-2.051-1.04s-1.383-0.33-2.128-0.33c-1.335 0-2.384 0.43-3.149 1.28-0.764 0.86-1.147 2.04-1.147 3.54s0.383 2.67 1.147 3.53c0.765 0.85 1.814 1.28 3.149 1.28 0.745 0 1.454-0.11 2.128-0.33s1.358-0.57 2.051-1.04v3m2.954-14.32h3.479v15.12h-3.479v-15.12m6.842 4.24h3.479v10.88h-3.479v-10.88m0-4.24h3.479v2.84h-3.479v-2.84m10.321 13.55v5.71h-3.479v-15.02h3.479v1.59c0.479-0.63 1.011-1.1 1.594-1.4s1.253-0.46 2.011-0.46c1.342 0 2.443 0.54 3.305 1.61 0.861 1.06 1.292 2.43 1.292 4.11s-0.431 3.05-1.292 4.12c-0.862 1.06-1.963 1.59-3.305 1.59-0.758 0-1.428-0.15-2.011-0.44-0.583-0.31-1.115-0.78-1.594-1.41m2.313-7.05c-0.745 0-1.319 0.28-1.72 0.83-0.396 0.54-0.593 1.33-0.593 2.36s0.197 1.82 0.593 2.37c0.401 0.54 0.975 0.82 1.72 0.82s1.312-0.28 1.701-0.82c0.395-0.54 0.592-1.33 0.592-2.37s-0.197-1.83-0.592-2.37c-0.389-0.55-0.956-0.82-1.701-0.82m13.353 3.72c-0.726 0-1.273 0.13-1.643 0.37-0.362 0.25-0.544 0.61-0.544 1.09 0 0.44 0.146 0.79 0.438 1.04 0.298 0.25 0.709 0.37 1.234 0.37 0.654 0 1.205-0.23 1.652-0.7s0.671-1.06 0.671-1.77v-0.4h-1.808m5.316-1.31v6.21h-3.508v-1.61c-0.467 0.66-0.992 1.14-1.575 1.45-0.583 0.29-1.292 0.44-2.128 0.44-1.128 0-2.044-0.32-2.75-0.98-0.7-0.66-1.05-1.51-1.05-2.56 0-1.28 0.437-2.22 1.312-2.81 0.881-0.6 2.261-0.9 4.14-0.9h2.051v-0.27c0-0.55-0.218-0.95-0.652-1.2-0.434-0.26-1.111-0.39-2.031-0.39-0.745 0-1.438 0.07-2.079 0.22-0.642 0.15-1.238 0.37-1.789 0.67v-2.65c0.745-0.18 1.494-0.32 2.245-0.41 0.752-0.1 1.503-0.15 2.255-0.15 1.963 0 3.379 0.39 4.247 1.17 0.875 0.77 1.312 2.03 1.312 3.77m11.302-1.71c-0.30451-0.14-0.60903-0.24-0.91353-0.31-0.298-0.07-0.5993-0.11-0.9038-0.11-0.8941 0-1.5841 0.29-2.07 0.87-0.4795 0.57-0.7192 1.39-0.7192 2.46v5.01h-3.4792v-10.88h3.4792v1.79c0.4471-0.72 0.9589-1.24 1.5355-1.56 0.5831-0.33 1.2796-0.5 2.0895-0.5 0.1166 0 0.2429 0.01 0.379 0.02 0.136 0.01 0.33365 0.03 0.59282 0.06l0.00971 3.15m5.5492-6.05v3.09h3.5861v2.48h-3.5861v4.62c0 0.51 0.1005 0.85 0.3013 1.03s0.5993 0.26 1.1954 0.26h1.7881v2.49h-2.9835c-1.3735 0-2.3486-0.28-2.9252-0.85-0.5702-0.58-0.8553-1.56-0.8552-2.93v-4.62h-1.7299l-0.00002-2.48h1.7299v-3.09h3.4791m6.0835 10.21h3.499v3.76h-3.499v-3.76m12.362-4.9c-0.771 0-1.361 0.28-1.769 0.84-0.401 0.55-0.602 1.35-0.602 2.39s0.201 1.84 0.602 2.4c0.408 0.55 0.998 0.83 1.769 0.83 0.758 0 1.338-0.28 1.74-0.83 0.401-0.56 0.602-1.36 0.602-2.4s-0.201-1.84-0.602-2.39c-0.402-0.56-0.982-0.84-1.74-0.84m0-2.49c1.872 0 3.333 0.51 4.383 1.52 1.056 1.01 1.584 2.41 1.584 4.2s-0.528 3.19-1.584 4.2c-1.05 1.01-2.511 1.51-4.383 1.51-1.879 0-3.35-0.5-4.412-1.51-1.056-1.01-1.584-2.41-1.584-4.2s0.528-3.19 1.584-4.2c1.062-1.01 2.533-1.52 4.412-1.52m16.589 3.23c-0.304-0.14-0.609-0.24-0.913-0.31-0.298-0.07-0.6-0.11-0.904-0.11-0.894 0-1.584 0.29-2.07 0.87-0.479 0.57-0.719 1.39-0.719 2.46v5.01h-3.479v-10.88h3.479v1.79c0.447-0.72 0.959-1.24 1.535-1.56 0.583-0.33 1.28-0.5 2.09-0.5 0.116 0 0.243 0.01 0.379 0.02s0.333 0.03 0.593 0.06l0.009 3.15m9.155 6.08c-0.479 0.63-1.007 1.1-1.584 1.39-0.577 0.3-1.244 0.45-2.002 0.45-1.328 0-2.426-0.52-3.295-1.56-0.868-1.05-1.302-2.39-1.302-4.01s0.434-2.95 1.302-3.99c0.869-1.04 1.967-1.57 3.295-1.57 0.758 0 1.425 0.15 2.002 0.45s1.105 0.77 1.584 1.41v-1.61h3.499v9.78c0 1.75-0.554 3.09-1.662 4.01-1.102 0.92-2.702 1.39-4.801 1.39-0.68 0-1.338-0.05-1.973-0.16-0.635-0.1-1.273-0.26-1.914-0.47v-2.72c0.609 0.35 1.205 0.61 1.788 0.78 0.583 0.18 1.169 0.26 1.759 0.26 1.14 0 1.976-0.25 2.507-0.74 0.531-0.5 0.797-1.28 0.797-2.35v-0.74m-2.294-6.78c-0.719 0-1.279 0.27-1.681 0.8-0.401 0.53-0.602 1.28-0.602 2.25 0 1 0.194 1.76 0.583 2.28 0.389 0.51 0.955 0.76 1.7 0.76 0.726 0 1.29-0.26 1.691-0.79 0.402-0.53 0.603-1.28 0.603-2.25s-0.201-1.72-0.603-2.25c-0.401-0.53-0.965-0.8-1.691-0.8"/>
  <path id="path1319" d="m-116.86 105.28c-1.14 0-2.02 0.42-2.65 1.26-0.63 0.85-0.94 2.03-0.94 3.56 0 1.52 0.31 2.71 0.94 3.55s1.51 1.26 2.65 1.26c1.15 0 2.04-0.42 2.67-1.26s0.94-2.03 0.94-3.55c0-1.53-0.31-2.71-0.94-3.56-0.63-0.84-1.52-1.26-2.67-1.26m0-2.71c2.34 0 4.16 0.67 5.48 2 1.33 1.34 1.99 3.18 1.99 5.53s-0.66 4.19-1.99 5.52c-1.32 1.34-3.14 2-5.48 2-2.32 0-4.15-0.66-5.48-2-1.32-1.33-1.98-3.17-1.98-5.52s0.66-4.19 1.98-5.53c1.33-1.33 3.16-2 5.48-2m13.61 13.2v5.71h-3.48v-15.02h3.48v1.59c0.48-0.63 1.01-1.1 1.59-1.4 0.59-0.3 1.26-0.46 2.015-0.46 1.341 0 2.443 0.54 3.304 1.61 0.862 1.06 1.293 2.43 1.293 4.11s-0.431 3.05-1.293 4.12c-0.861 1.06-1.963 1.59-3.304 1.59-0.755 0-1.425-0.15-2.015-0.44-0.58-0.31-1.11-0.78-1.59-1.41m2.31-7.05c-0.74 0-1.32 0.28-1.72 0.83-0.39 0.54-0.59 1.33-0.59 2.36s0.2 1.82 0.59 2.37c0.4 0.54 0.98 0.82 1.72 0.82 0.75 0 1.314-0.28 1.703-0.82 0.395-0.54 0.593-1.33 0.593-2.37s-0.198-1.83-0.593-2.37c-0.389-0.55-0.953-0.82-1.703-0.82m19.342 3.15v0.99h-8.134c0.084 0.82 0.379 1.43 0.884 1.84s1.212 0.61 2.119 0.61c0.732 0 1.48-0.11 2.245-0.32 0.771-0.22 1.561-0.55 2.371-0.99v2.68c-0.823 0.31-1.646 0.55-2.468 0.7-0.823 0.16-1.646 0.24-2.469 0.24-1.97 0-3.502-0.5-4.597-1.49-1.088-1.01-1.632-2.41-1.632-4.22 0-1.78 0.534-3.17 1.603-4.19 1.076-1.02 2.553-1.53 4.432-1.53 1.71 0 3.077 0.52 4.101 1.55 1.03 1.03 1.545 2.41 1.545 4.13m-3.576-1.16c0-0.66-0.195-1.19-0.583-1.59-0.383-0.41-0.885-0.61-1.507-0.61-0.674 0-1.221 0.19-1.642 0.57s-0.684 0.92-0.787 1.63h4.519m17.182 0v6.63h-3.499v-5.07c0-0.94-0.023-1.59-0.068-1.94-0.039-0.36-0.11-0.62-0.214-0.79-0.136-0.23-0.32-0.4-0.554-0.53-0.233-0.13-0.498-0.19-0.797-0.19-0.725 0-1.295 0.28-1.71 0.84s-0.622 1.34-0.622 2.33v5.35h-3.479v-10.88h3.479v1.59c0.525-0.63 1.082-1.1 1.672-1.4 0.589-0.3 1.24-0.46 1.953-0.46 1.257 0 2.209 0.39 2.857 1.16 0.655 0.77 0.982 1.89 0.982 3.36m14.908 5.83c-0.687 0.36-1.403 0.63-2.148 0.81s-1.523 0.27-2.332 0.27c-2.417 0-4.332-0.67-5.744-2.02s-2.119-3.19-2.119-5.5c0-2.32 0.707-4.15 2.119-5.5s3.327-2.03 5.744-2.03c0.809 0 1.587 0.09 2.332 0.27s1.461 0.45 2.148 0.81v3c-0.693-0.47-1.377-0.82-2.051-1.04s-1.383-0.33-2.128-0.33c-1.335 0-2.384 0.43-3.149 1.28-0.764 0.86-1.147 2.04-1.147 3.54s0.383 2.67 1.147 3.53c0.765 0.85 1.814 1.28 3.149 1.28 0.745 0 1.454-0.11 2.128-0.33s1.358-0.57 2.051-1.04v3m2.954-14.32h3.479v15.12h-3.479v-15.12m6.842 4.24h3.479v10.88h-3.479v-10.88m0-4.24h3.479v2.84h-3.479v-2.84m10.321 13.55v5.71h-3.479v-15.02h3.479v1.59c0.479-0.63 1.011-1.1 1.594-1.4s1.253-0.46 2.011-0.46c1.342 0 2.443 0.54 3.305 1.61 0.861 1.06 1.292 2.43 1.292 4.11s-0.431 3.05-1.292 4.12c-0.862 1.06-1.963 1.59-3.305 1.59-0.758 0-1.428-0.15-2.011-0.44-0.583-0.31-1.115-0.78-1.594-1.41m2.313-7.05c-0.745 0-1.319 0.28-1.72 0.83-0.396 0.54-0.593 1.33-0.593 2.36s0.197 1.82 0.593 2.37c0.401 0.54 0.975 0.82 1.72 0.82s1.312-0.28 1.701-0.82c0.395-0.54 0.592-1.33 0.592-2.37s-0.197-1.83-0.592-2.37c-0.389-0.55-0.956-0.82-1.701-0.82m13.353 3.72c-0.726 0-1.273 0.13-1.643 0.37-0.362 0.25-0.544 0.61-0.544 1.09 0 0.44 0.146 0.79 0.438 1.04 0.298 0.25 0.709 0.37 1.234 0.37 0.654 0 1.205-0.23 1.652-0.7s0.671-1.06 0.671-1.77v-0.4h-1.808m5.316-1.31v6.21h-3.508v-1.61c-0.467 0.66-0.992 1.14-1.575 1.45-0.583 0.29-1.292 0.44-2.128 0.44-1.128 0-2.044-0.32-2.75-0.98-0.7-0.66-1.05-1.51-1.05-2.56 0-1.28 0.437-2.22 1.312-2.81 0.881-0.6 2.261-0.9 4.14-0.9h2.051v-0.27c0-0.55-0.218-0.95-0.652-1.2-0.434-0.26-1.111-0.39-2.031-0.39-0.745 0-1.438 0.07-2.079 0.22-0.642 0.15-1.238 0.37-1.789 0.67v-2.65c0.745-0.18 1.494-0.32 2.245-0.41 0.752-0.1 1.503-0.15 2.255-0.15 1.963 0 3.379 0.39 4.247 1.17 0.875 0.77 1.312 2.03 1.312 3.77m11.302-1.71c-0.30451-0.14-0.60903-0.24-0.91353-0.31-0.298-0.07-0.5993-0.11-0.9038-0.11-0.8941 0-1.5841 0.29-2.07 0.87-0.4795 0.57-0.7192 1.39-0.7192 2.46v5.01h-3.4792v-10.88h3.4792v1.79c0.4471-0.72 0.9589-1.24 1.5355-1.56 0.5831-0.33 1.2796-0.5 2.0895-0.5 0.1166 0 0.2429 0.01 0.379 0.02 0.136 0.01 0.33365 0.03 0.59282 0.06l0.00971 3.15m5.5492-6.05v3.09h3.5861v2.48h-3.5861v4.62c0 0.51 0.1005 0.85 0.3013 1.03s0.5993 0.26 1.1954 0.26h1.7881v2.49h-2.9835c-1.3735 0-2.3486-0.28-2.9252-0.85-0.5702-0.58-0.8553-1.56-0.8552-2.93v-4.62h-1.7299l-0.00002-2.48h1.7299v-3.09h3.4791m6.0835 10.21h3.499v3.76h-3.499v-3.76m12.362-4.9c-0.771 0-1.361 0.28-1.769 0.84-0.401 0.55-0.602 1.35-0.602 2.39s0.201 1.84 0.602 2.4c0.408 0.55 0.998 0.83 1.769 0.83 0.758 0 1.338-0.28 1.74-0.83 0.401-0.56 0.602-1.36 0.602-2.4s-0.201-1.84-0.602-2.39c-0.402-0.56-0.982-0.84-1.74-0.84m0-2.49c1.872 0 3.333 0.51 4.383 1.52 1.056 1.01 1.584 2.41 1.584 4.2s-0.528 3.19-1.584 4.2c-1.05 1.01-2.511 1.51-4.383 1.51-1.879 0-3.35-0.5-4.412-1.51-1.056-1.01-1.584-2.41-1.584-4.2s0.528-3.19 1.584-4.2c1.062-1.01 2.533-1.52 4.412-1.52m16.589 3.23c-0.304-0.14-0.609-0.24-0.913-0.31-0.298-0.07-0.6-0.11-0.904-0.11-0.894 0-1.584 0.29-2.07 0.87-0.479 0.57-0.719 1.39-0.719 2.46v5.01h-3.479v-10.88h3.479v1.79c0.447-0.72 0.959-1.24 1.535-1.56 0.583-0.33 1.28-0.5 2.09-0.5 0.116 0 0.243 0.01 0.379 0.02s0.333 0.03 0.593 0.06l0.009 3.15m9.155 6.08c-0.479 0.63-1.007 1.1-1.584 1.39-0.577 0.3-1.244 0.45-2.002 0.45-1.328 0-2.426-0.52-3.295-1.56-0.868-1.05-1.302-2.39-1.302-4.01s0.434-2.95 1.302-3.99c0.869-1.04 1.967-1.57 3.295-1.57 0.758 0 1.425 0.15 2.002 0.45s1.105 0.77 1.584 1.41v-1.61h3.499v9.78c0 1.75-0.554 3.09-1.662 4.01-1.102 0.92-2.702 1.39-4.801 1.39-0.68 0-1.338-0.05-1.973-0.16-0.635-0.1-1.273-0.26-1.914-0.47v-2.72c0.609 0.35 1.205 0.61 1.788 0.78 0.583 0.18 1.169 0.26 1.759 0.26 1.14 0 1.976-0.25 2.507-0.74 0.531-0.5 0.797-1.28 0.797-2.35v-0.74m-2.294-6.78c-0.719 0-1.279 0.27-1.681 0.8-0.401 0.53-0.602 1.28-0.602 2.25 0 1 0.194 1.76 0.583 2.28 0.389 0.51 0.955 0.76 1.7 0.76 0.726 0 1.29-0.26 1.691-0.79 0.402-0.53 0.603-1.28 0.603-2.25s-0.201-1.72-0.603-2.25c-0.401-0.53-0.965-0.8-1.691-0.8" transform="matrix(.59128 -.80646 .80646 .59128 0 0)" stroke="url(#linearGradient2085)" stroke-width="1px" fill="none"/>
  <metadata>
    <rdf:RDF>
      <cc:Work>
        <dc:format>image/svg+xml</dc:format>
        <dc:type rdf:resource="http://purl.org/dc/dcmitype/StillImage"/>
        <cc:license rdf:resource="http://creativecommons.org/licenses/publicdomain/"/>
        <dc:publisher>
          <cc:Agent rdf:about="http://openclipart.org/">
            <dc:title>Openclipart</dc:title>
          </cc:Agent>
        </dc:publisher>
        <dc:title>Card backs: silhouette blue</dc:title>
        <dc:date>2009-03-23T14:01:04</dc:date>
        <dc:description>playing card backs for the "Ornamental", "White", "Simple" and "Bordered" sets</dc:description>
        <dc:source>http://openclipart.org/detail/23040/card-backs:-silhouette-blue-by-nicubunu</dc:source>
        <dc:creator>
          <cc:Agent>
            <dc:title>nicubunu</dc:title>
          </cc:Agent>
        </dc:creator>
        <dc:subject>
          <rdf:Bag>
            <rdf:li>bordered deck</rdf:li>
            <rdf:li>card</rdf:li>
            <rdf:li>cards</rdf:li>
            <rdf:li>clip art</rdf:li>
            <rdf:li>clipart</rdf:li>
            <rdf:li>deck</rdf:li>
            <rdf:li>gambling</rdf:li>
            <rdf:li>game</rdf:li>
            <rdf:li>image</rdf:li>
            <rdf:li>media</rdf:li>
            <rdf:li>ornamental deck</rdf:li>
            <rdf:li>play</rdf:li>
            <rdf:li>playing cards</rdf:li>
            <rdf:li>png</rdf:li>
            <rdf:li>public domain</rdf:li>
            <rdf:li>simple deck</rdf:li>
            <rdf:li>svg</rdf:li>
            <rdf:li>white deck</rdf:li>
          </rdf:Bag>
        </dc:subject>
      </cc:Work>
      <cc:License rdf:about="http://creativecommons.org/licenses/publicdomain/">
        <cc:permits rdf:resource="http://creativecommons.org/ns#Reproduction"/>
        <cc:permits rdf:resource="http://creativecommons.org/ns#Distribution"/>
        <cc:permits rdf:resource="http://creativecommons.org/ns#DerivativeWorks"/>
      </cc:License>
    </rdf:RDF>
  </metadata>
</svg>
